<svg width="1024" height="1024" viewBox="0 0 1024 1024" fill="none" xmlns="http://www.w3.org/2000/svg">
<path fill-rule="evenodd" clip-rule="evenodd" d="M114.095 395.469C114.095 529.21 114.31 638.42 114.574 638.157C114.837 637.893 116.892 634.832 119.141 631.353C125.688 621.223 133.823 611.465 143.8 601.774L153.095 592.747V393.024V193.302H262.717C356.091 193.302 373.87 193.529 382.671 194.836C412.711 199.297 443.983 212.555 469.342 231.583C479.91 239.512 496.875 256.402 505.219 267.302C541.88 315.192 553.682 374.474 538.539 434.666C527.543 478.374 498.819 518.343 460.095 543.82C441.321 556.171 425.258 563.391 404.459 568.827C383.434 574.322 381.134 574.483 312.595 575.255C252.977 575.926 247.836 576.122 237.512 578.121C205.038 584.407 178.159 598.825 156.513 621.568C136.17 642.941 123.789 666.389 116.786 696.802C114.796 705.443 114.699 709.097 114.357 788.332L114 870.862L123.297 871.113C135.769 871.449 156.458 869.607 168.038 867.13C212.379 857.643 250.772 827.59 270.653 786.802C277.883 771.97 281.335 760.962 284.136 743.802C285.88 733.119 286.095 726.727 286.095 685.552V639.302H269.22C259.939 639.302 251.019 639.567 249.399 639.891L246.454 640.48L246.453 685.141C246.453 732.839 245.946 739.307 241.04 754.302C231.618 783.095 209.255 807.998 180.906 821.264C173.085 824.924 158.924 829.302 154.907 829.302C153.182 829.302 153.095 826.897 153.104 779.052C153.108 751.414 153.551 723.852 154.087 717.802C156.437 691.27 166.341 669.313 184.389 650.622C199.093 635.394 216.637 625.002 236.818 619.567L246.595 616.934L311.095 616.234C378.751 615.499 384.018 615.173 406.075 610.359C465.107 597.475 518.126 559.944 550.084 508.417C574.442 469.143 586.376 424.237 584.789 377.82C583.708 346.179 577.957 319.864 565.881 291.302C548.212 249.51 514.884 210.893 475.455 186.524C446.981 168.926 412.173 156.971 378.884 153.357C372.594 152.673 324.251 152.302 241.634 152.302H114.095V395.469ZM546.095 184.166V216.332L552.26 224.067C561.375 235.504 572.955 253.407 579.449 266.103C582.599 272.263 585.271 277.302 585.386 277.302C585.501 277.303 585.472 259.476 585.322 237.688L585.049 198.074L587.822 198.767C593.296 200.134 605.211 205.564 612.963 210.223C644.769 229.339 667.26 262.929 673.613 300.802C675.331 311.048 675.828 387.074 676.037 671.552L676.095 750.302H772.595C863.98 750.302 869.095 750.395 869.095 752.059C869.095 753.025 867.984 757.863 866.627 762.809C858.142 793.728 834.523 817.66 803.377 826.896C796.404 828.964 791.711 829.605 780.595 830.008C744.551 831.314 709.335 821.204 678.095 800.581C664.552 791.641 656.895 785.282 644.727 772.869C610.203 737.651 589.939 692.226 586.036 641.302C585.322 631.984 585.045 602.62 585.26 559.135C585.444 521.918 585.517 491.546 585.421 491.642C585.326 491.738 582.983 496.341 580.214 501.87C574.266 513.753 559.574 536.132 551.703 545.302L546.123 551.802L546.109 598.308C546.098 633.212 546.467 647.991 547.585 657.548C550.804 685.074 558.698 711.784 571.005 736.802C605.3 806.513 665.901 853.765 738.529 867.425C752.484 870.05 783.983 871.115 796.26 869.377C836.432 863.691 869.556 841.924 890.598 807.386C904.678 784.274 909.775 764.17 910.268 729.802L910.554 709.802L812.825 709.547L715.095 709.292V510.758C715.095 381.24 714.736 308.847 714.063 302.513C707.923 244.733 671.464 192.722 619.627 167.792C599.455 158.092 581.785 153.675 558.845 152.598L546.095 152V184.166ZM246.595 417.004V551.802L266.345 552.073L286.095 552.344V519.391V486.438L328.345 486.068C370.069 485.703 370.713 485.666 380.106 483.118C422.359 471.658 450.224 437.963 454.11 393.633C458.583 342.611 427.97 297.796 379.988 285.123C371.828 282.968 369.857 282.897 309.095 282.556L246.595 282.206V417.004ZM368.296 324.392C371.21 324.992 377.213 327.209 381.634 329.319C395.109 335.749 405.537 347.568 410.84 362.421C414.202 371.84 415.05 388.062 412.75 398.967C409.086 416.335 397.831 431.329 383.095 438.474C369.649 444.993 366.991 445.302 324.281 445.302H286.095V384.302V323.302H324.546C348.391 323.302 365.01 323.716 368.296 324.392Z" fill="white"/>
</svg>
